<mxfile host="Electron" modified="2023-05-14T20:31:06.214Z" agent="Mozilla/5.0 (Windows NT 10.0; Win64; x64) AppleWebKit/537.36 (KHTML, like Gecko) draw.io/21.2.8 Chrome/112.0.5615.165 Electron/24.2.0 Safari/537.36" etag="9UxnPjL9AZZR_HCRwkOG" version="21.2.8" type="device" pages="9">
  <diagram name="scratch" id="5as9pcr7Nz2_JvE0C01K">
    <mxGraphModel dx="1793" dy="1105" grid="1" gridSize="10" guides="1" tooltips="1" connect="1" arrows="1" fold="1" page="1" pageScale="1" pageWidth="850" pageHeight="1100" math="0" shadow="0">
      <root>
        <mxCell id="0" />
        <mxCell id="1" parent="0" />
      </root>
    </mxGraphModel>
  </diagram>
  <diagram id="x6TUyJZKGxAGNk3BVpOY" name="01-nodes">
    <mxGraphModel dx="2735" dy="2210" grid="1" gridSize="10" guides="1" tooltips="1" connect="1" arrows="1" fold="1" page="1" pageScale="1" pageWidth="850" pageHeight="1100" math="0" shadow="0">
      <root>
        <mxCell id="0" />
        <mxCell id="1" parent="0" />
        <mxCell id="c-jnHkGEfqNtWj7TDGjD-1" value="" style="rounded=0;whiteSpace=wrap;html=1;fillColor=#E6E6E6;" vertex="1" parent="1">
          <mxGeometry x="880" y="40" width="2080" height="1400" as="geometry" />
        </mxCell>
        <mxCell id="c-jnHkGEfqNtWj7TDGjD-2" value="" style="rounded=0;whiteSpace=wrap;html=1;" vertex="1" parent="1">
          <mxGeometry x="920" y="80" width="2000" height="1320" as="geometry" />
        </mxCell>
        <mxCell id="c-jnHkGEfqNtWj7TDGjD-3" value="&lt;font style=&quot;font-size: 18px;&quot;&gt;NODES&lt;/font&gt;&lt;br&gt;&lt;b&gt;HEALTH 100%&lt;/b&gt;" style="shape=step;perimeter=stepPerimeter;whiteSpace=wrap;html=1;fixedSize=1;fillColor=#CCCCFF;" vertex="1" parent="1">
          <mxGeometry x="960" y="120" width="240" height="120" as="geometry" />
        </mxCell>
        <mxCell id="c-jnHkGEfqNtWj7TDGjD-4" value="&lt;font style=&quot;font-size: 18px;&quot;&gt;BLOCKS&lt;/font&gt;&lt;br&gt;&lt;b&gt;HEIGHT 215K&lt;/b&gt;" style="shape=step;perimeter=stepPerimeter;whiteSpace=wrap;html=1;fixedSize=1;fillColor=#CCCCCC;" vertex="1" parent="1">
          <mxGeometry x="1200" y="120" width="240" height="120" as="geometry" />
        </mxCell>
        <mxCell id="c-jnHkGEfqNtWj7TDGjD-5" value="&lt;span style=&quot;font-size: 18px;&quot;&gt;THROUGHPUT&lt;br&gt;&lt;/span&gt;&lt;b&gt;1.2K TRANS / SEC&lt;br&gt;&lt;/b&gt;" style="shape=step;perimeter=stepPerimeter;whiteSpace=wrap;html=1;fixedSize=1;fillColor=#CCCCCC;" vertex="1" parent="1">
          <mxGeometry x="1440" y="120" width="240" height="120" as="geometry" />
        </mxCell>
        <mxCell id="c-jnHkGEfqNtWj7TDGjD-6" value="&lt;span style=&quot;font-size: 18px;&quot;&gt;BACKLOG&lt;br&gt;&lt;/span&gt;&lt;b&gt;388 PENDING TRANS&lt;br&gt;&lt;/b&gt;" style="shape=step;perimeter=stepPerimeter;whiteSpace=wrap;html=1;fixedSize=1;fillColor=#CCCCCC;" vertex="1" parent="1">
          <mxGeometry x="1680" y="120" width="240" height="120" as="geometry" />
        </mxCell>
        <mxCell id="c-jnHkGEfqNtWj7TDGjD-7" value="&lt;span style=&quot;font-size: 18px;&quot;&gt;VALIDATION&lt;br&gt;&lt;/span&gt;&lt;b&gt;AVG 200MS&lt;br&gt;&lt;/b&gt;" style="shape=step;perimeter=stepPerimeter;whiteSpace=wrap;html=1;fixedSize=1;fillColor=#CCCCCC;" vertex="1" parent="1">
          <mxGeometry x="1920" y="120" width="240" height="120" as="geometry" />
        </mxCell>
        <mxCell id="c-jnHkGEfqNtWj7TDGjD-8" value="&lt;span style=&quot;font-size: 18px;&quot;&gt;CONSENSUS&lt;br&gt;&lt;/span&gt;&lt;b&gt;AVG 3500MS&lt;br&gt;&lt;/b&gt;" style="shape=step;perimeter=stepPerimeter;whiteSpace=wrap;html=1;fixedSize=1;fillColor=#CCCCCC;" vertex="1" parent="1">
          <mxGeometry x="2160" y="120" width="240" height="120" as="geometry" />
        </mxCell>
        <mxCell id="c-jnHkGEfqNtWj7TDGjD-9" value="&lt;span style=&quot;font-size: 18px;&quot;&gt;RESOURCES&lt;br&gt;&lt;/span&gt;&lt;b&gt;DEMAND HIGH&lt;br&gt;&lt;/b&gt;" style="shape=step;perimeter=stepPerimeter;whiteSpace=wrap;html=1;fixedSize=1;fillColor=#CCCCCC;" vertex="1" parent="1">
          <mxGeometry x="2400" y="120" width="240" height="120" as="geometry" />
        </mxCell>
        <mxCell id="c-jnHkGEfqNtWj7TDGjD-10" value="&lt;span style=&quot;font-size: 18px;&quot;&gt;EXCEPTIONS&lt;br&gt;&lt;/span&gt;&lt;b&gt;PULSE HEALTHY&lt;br&gt;&lt;/b&gt;" style="shape=step;perimeter=stepPerimeter;whiteSpace=wrap;html=1;fixedSize=1;fillColor=#CCCCCC;" vertex="1" parent="1">
          <mxGeometry x="2640" y="120" width="240" height="120" as="geometry" />
        </mxCell>
        <mxCell id="c-jnHkGEfqNtWj7TDGjD-11" value="&lt;strong style=&quot;background-color: initial; border-color: var(--border-color);&quot;&gt;&lt;font style=&quot;&quot;&gt;&lt;div style=&quot;border-color: var(--border-color); font-weight: 400;&quot;&gt;&lt;font style=&quot;border-color: var(--border-color); font-size: 128px;&quot;&gt;&lt;strong style=&quot;border-color: var(--border-color); background-color: initial;&quot;&gt;Node Status&lt;/strong&gt;&lt;/font&gt;&lt;/div&gt;&lt;div style=&quot;border-color: var(--border-color); font-weight: 400;&quot;&gt;&lt;font style=&quot;border-color: var(--border-color); font-size: 72px;&quot;&gt;The operational status of each node is critical. You&#39;d want to monitor whether each node is up and running, and if not, why not.&lt;/font&gt;&lt;/div&gt;&lt;/font&gt;&lt;/strong&gt;" style="rounded=1;whiteSpace=wrap;html=1;fillColor=#CCCCFF;" vertex="1" parent="1">
          <mxGeometry x="960" y="270" width="1920" height="1080" as="geometry" />
        </mxCell>
      </root>
    </mxGraphModel>
  </diagram>
  <diagram id="dZpHx50RBpz3FXpmgkPR" name="02-block-height">
    <mxGraphModel dx="3585" dy="2210" grid="1" gridSize="10" guides="1" tooltips="1" connect="1" arrows="1" fold="1" page="1" pageScale="1" pageWidth="850" pageHeight="1100" math="0" shadow="0">
      <root>
        <mxCell id="0" />
        <mxCell id="1" parent="0" />
        <mxCell id="0lNqm9I9kZkGwuofhOPZ-1" value="" style="rounded=0;whiteSpace=wrap;html=1;fillColor=#E6E6E6;" vertex="1" parent="1">
          <mxGeometry x="40" y="40" width="2080" height="1400" as="geometry" />
        </mxCell>
        <mxCell id="0lNqm9I9kZkGwuofhOPZ-2" value="" style="rounded=0;whiteSpace=wrap;html=1;" vertex="1" parent="1">
          <mxGeometry x="80" y="80" width="2000" height="1320" as="geometry" />
        </mxCell>
        <mxCell id="0lNqm9I9kZkGwuofhOPZ-3" value="&lt;font style=&quot;font-size: 18px;&quot;&gt;NODES&lt;/font&gt;&lt;br&gt;&lt;b&gt;HEALTH 100%&lt;/b&gt;" style="shape=step;perimeter=stepPerimeter;whiteSpace=wrap;html=1;fixedSize=1;fillColor=#CCCCCC;" vertex="1" parent="1">
          <mxGeometry x="120" y="120" width="240" height="120" as="geometry" />
        </mxCell>
        <mxCell id="0lNqm9I9kZkGwuofhOPZ-4" value="&lt;font style=&quot;font-size: 18px;&quot;&gt;BLOCKS&lt;/font&gt;&lt;br&gt;&lt;b&gt;HEIGHT 215K&lt;/b&gt;" style="shape=step;perimeter=stepPerimeter;whiteSpace=wrap;html=1;fixedSize=1;fillColor=#CCCCFF;" vertex="1" parent="1">
          <mxGeometry x="360" y="120" width="240" height="120" as="geometry" />
        </mxCell>
        <mxCell id="0lNqm9I9kZkGwuofhOPZ-5" value="&lt;span style=&quot;font-size: 18px;&quot;&gt;THROUGHPUT&lt;br&gt;&lt;/span&gt;&lt;b&gt;1.2K TRANS / SEC&lt;br&gt;&lt;/b&gt;" style="shape=step;perimeter=stepPerimeter;whiteSpace=wrap;html=1;fixedSize=1;fillColor=#CCCCCC;" vertex="1" parent="1">
          <mxGeometry x="600" y="120" width="240" height="120" as="geometry" />
        </mxCell>
        <mxCell id="0lNqm9I9kZkGwuofhOPZ-6" value="&lt;span style=&quot;font-size: 18px;&quot;&gt;BACKLOG&lt;br&gt;&lt;/span&gt;&lt;b&gt;388 PENDING TRANS&lt;br&gt;&lt;/b&gt;" style="shape=step;perimeter=stepPerimeter;whiteSpace=wrap;html=1;fixedSize=1;fillColor=#CCCCCC;" vertex="1" parent="1">
          <mxGeometry x="840" y="120" width="240" height="120" as="geometry" />
        </mxCell>
        <mxCell id="0lNqm9I9kZkGwuofhOPZ-7" value="&lt;span style=&quot;font-size: 18px;&quot;&gt;VALIDATION&lt;br&gt;&lt;/span&gt;&lt;b&gt;AVG 200MS&lt;br&gt;&lt;/b&gt;" style="shape=step;perimeter=stepPerimeter;whiteSpace=wrap;html=1;fixedSize=1;fillColor=#CCCCCC;" vertex="1" parent="1">
          <mxGeometry x="1080" y="120" width="240" height="120" as="geometry" />
        </mxCell>
        <mxCell id="0lNqm9I9kZkGwuofhOPZ-8" value="&lt;span style=&quot;font-size: 18px;&quot;&gt;CONSENSUS&lt;br&gt;&lt;/span&gt;&lt;b&gt;AVG 3500MS&lt;br&gt;&lt;/b&gt;" style="shape=step;perimeter=stepPerimeter;whiteSpace=wrap;html=1;fixedSize=1;fillColor=#CCCCCC;" vertex="1" parent="1">
          <mxGeometry x="1320" y="120" width="240" height="120" as="geometry" />
        </mxCell>
        <mxCell id="0lNqm9I9kZkGwuofhOPZ-9" value="&lt;span style=&quot;font-size: 18px;&quot;&gt;RESOURCES&lt;br&gt;&lt;/span&gt;&lt;b&gt;DEMAND HIGH&lt;br&gt;&lt;/b&gt;" style="shape=step;perimeter=stepPerimeter;whiteSpace=wrap;html=1;fixedSize=1;fillColor=#CCCCCC;" vertex="1" parent="1">
          <mxGeometry x="1560" y="120" width="240" height="120" as="geometry" />
        </mxCell>
        <mxCell id="0lNqm9I9kZkGwuofhOPZ-10" value="&lt;span style=&quot;font-size: 18px;&quot;&gt;EXCEPTIONS&lt;br&gt;&lt;/span&gt;&lt;b&gt;PULSE HEALTHY&lt;br&gt;&lt;/b&gt;" style="shape=step;perimeter=stepPerimeter;whiteSpace=wrap;html=1;fixedSize=1;fillColor=#CCCCCC;" vertex="1" parent="1">
          <mxGeometry x="1800" y="120" width="240" height="120" as="geometry" />
        </mxCell>
        <mxCell id="0lNqm9I9kZkGwuofhOPZ-11" value="&lt;span style=&quot;background-color: initial; border-color: var(--border-color);&quot;&gt;&lt;font style=&quot;&quot;&gt;&lt;strong style=&quot;font-weight: bold; border-color: var(--border-color); background-color: initial;&quot;&gt;&lt;font style=&quot;border-color: var(--border-color); font-size: 128px;&quot;&gt;Block Height&lt;br style=&quot;border-color: var(--border-color);&quot;&gt;&lt;/font&gt;&lt;/strong&gt;&lt;font style=&quot;border-color: var(--border-color); font-size: 72px;&quot;&gt;This is the number of blocks in the blockchain. In a healthy network, this should be increasing steadily over time. If it&#39;s not, it could indicate a problem with block production.&lt;/font&gt;&lt;br&gt;&lt;/font&gt;&lt;/span&gt;" style="rounded=1;whiteSpace=wrap;html=1;fillColor=#CCCCFF;" vertex="1" parent="1">
          <mxGeometry x="120" y="270" width="1920" height="1080" as="geometry" />
        </mxCell>
      </root>
    </mxGraphModel>
  </diagram>
  <diagram id="hJdX3kWDIuO7P4TIpUSN" name="03-transaction-throughput">
    <mxGraphModel dx="3585" dy="2210" grid="1" gridSize="10" guides="1" tooltips="1" connect="1" arrows="1" fold="1" page="1" pageScale="1" pageWidth="850" pageHeight="1100" math="0" shadow="0">
      <root>
        <mxCell id="0" />
        <mxCell id="1" parent="0" />
        <mxCell id="8BFe8vwsK6UObjrh73sH-1" value="" style="rounded=0;whiteSpace=wrap;html=1;fillColor=#E6E6E6;" vertex="1" parent="1">
          <mxGeometry x="40" y="40" width="2080" height="1400" as="geometry" />
        </mxCell>
        <mxCell id="8BFe8vwsK6UObjrh73sH-2" value="" style="rounded=0;whiteSpace=wrap;html=1;" vertex="1" parent="1">
          <mxGeometry x="80" y="80" width="2000" height="1320" as="geometry" />
        </mxCell>
        <mxCell id="8BFe8vwsK6UObjrh73sH-3" value="&lt;font style=&quot;font-size: 18px;&quot;&gt;NODES&lt;/font&gt;&lt;br&gt;&lt;b&gt;HEALTH 100%&lt;/b&gt;" style="shape=step;perimeter=stepPerimeter;whiteSpace=wrap;html=1;fixedSize=1;fillColor=#CCCCCC;" vertex="1" parent="1">
          <mxGeometry x="120" y="120" width="240" height="120" as="geometry" />
        </mxCell>
        <mxCell id="8BFe8vwsK6UObjrh73sH-4" value="&lt;font style=&quot;font-size: 18px;&quot;&gt;BLOCKS&lt;/font&gt;&lt;br&gt;&lt;b&gt;HEIGHT 215K&lt;/b&gt;" style="shape=step;perimeter=stepPerimeter;whiteSpace=wrap;html=1;fixedSize=1;fillColor=#CCCCCC;" vertex="1" parent="1">
          <mxGeometry x="360" y="120" width="240" height="120" as="geometry" />
        </mxCell>
        <mxCell id="8BFe8vwsK6UObjrh73sH-5" value="&lt;span style=&quot;font-size: 18px;&quot;&gt;THROUGHPUT&lt;br&gt;&lt;/span&gt;&lt;b&gt;1.2K TRANS / SEC&lt;br&gt;&lt;/b&gt;" style="shape=step;perimeter=stepPerimeter;whiteSpace=wrap;html=1;fixedSize=1;fillColor=#CCCCFF;" vertex="1" parent="1">
          <mxGeometry x="600" y="120" width="240" height="120" as="geometry" />
        </mxCell>
        <mxCell id="8BFe8vwsK6UObjrh73sH-6" value="&lt;span style=&quot;font-size: 18px;&quot;&gt;BACKLOG&lt;br&gt;&lt;/span&gt;&lt;b&gt;388 PENDING TRANS&lt;br&gt;&lt;/b&gt;" style="shape=step;perimeter=stepPerimeter;whiteSpace=wrap;html=1;fixedSize=1;fillColor=#CCCCCC;" vertex="1" parent="1">
          <mxGeometry x="840" y="120" width="240" height="120" as="geometry" />
        </mxCell>
        <mxCell id="8BFe8vwsK6UObjrh73sH-7" value="&lt;span style=&quot;font-size: 18px;&quot;&gt;VALIDATION&lt;br&gt;&lt;/span&gt;&lt;b&gt;AVG 200MS&lt;br&gt;&lt;/b&gt;" style="shape=step;perimeter=stepPerimeter;whiteSpace=wrap;html=1;fixedSize=1;fillColor=#CCCCCC;" vertex="1" parent="1">
          <mxGeometry x="1080" y="120" width="240" height="120" as="geometry" />
        </mxCell>
        <mxCell id="8BFe8vwsK6UObjrh73sH-8" value="&lt;span style=&quot;font-size: 18px;&quot;&gt;CONSENSUS&lt;br&gt;&lt;/span&gt;&lt;b&gt;AVG 3500MS&lt;br&gt;&lt;/b&gt;" style="shape=step;perimeter=stepPerimeter;whiteSpace=wrap;html=1;fixedSize=1;fillColor=#CCCCCC;" vertex="1" parent="1">
          <mxGeometry x="1320" y="120" width="240" height="120" as="geometry" />
        </mxCell>
        <mxCell id="8BFe8vwsK6UObjrh73sH-9" value="&lt;span style=&quot;font-size: 18px;&quot;&gt;RESOURCES&lt;br&gt;&lt;/span&gt;&lt;b&gt;DEMAND HIGH&lt;br&gt;&lt;/b&gt;" style="shape=step;perimeter=stepPerimeter;whiteSpace=wrap;html=1;fixedSize=1;fillColor=#CCCCCC;" vertex="1" parent="1">
          <mxGeometry x="1560" y="120" width="240" height="120" as="geometry" />
        </mxCell>
        <mxCell id="8BFe8vwsK6UObjrh73sH-10" value="&lt;span style=&quot;font-size: 18px;&quot;&gt;EXCEPTIONS&lt;br&gt;&lt;/span&gt;&lt;b&gt;PULSE HEALTHY&lt;br&gt;&lt;/b&gt;" style="shape=step;perimeter=stepPerimeter;whiteSpace=wrap;html=1;fixedSize=1;fillColor=#CCCCCC;" vertex="1" parent="1">
          <mxGeometry x="1800" y="120" width="240" height="120" as="geometry" />
        </mxCell>
        <mxCell id="8BFe8vwsK6UObjrh73sH-11" value="&#xa;&lt;strong style=&quot;border-color: var(--border-color); color: rgb(0, 0, 0); font-family: Helvetica; font-size: 12px; font-style: normal; font-variant-ligatures: normal; font-variant-caps: normal; letter-spacing: normal; orphans: 2; text-indent: 0px; text-transform: none; widows: 2; word-spacing: 0px; -webkit-text-stroke-width: 0px; background-color: initial; text-decoration-thickness: initial; text-decoration-style: initial; text-decoration-color: initial; text-align: center;&quot;&gt;&lt;font style=&quot;border-color: var(--border-color);&quot;&gt;&lt;strong style=&quot;border-color: var(--border-color); background-color: initial;&quot;&gt;&lt;font style=&quot;border-color: var(--border-color); font-size: 128px;&quot;&gt;Transaction Throughput&lt;/font&gt;&lt;/strong&gt;&lt;br style=&quot;border-color: var(--border-color);&quot;&gt;&lt;span style=&quot;border-color: var(--border-color); font-size: 72px; font-weight: 400; background-color: initial;&quot;&gt;This is the number of transactions that the network is processing per second. This can give you a sense of how heavily the network is being used.&lt;/span&gt;&lt;/font&gt;&lt;/strong&gt;&#xa;&#xa;" style="rounded=1;whiteSpace=wrap;html=1;fillColor=#CCCCFF;" vertex="1" parent="1">
          <mxGeometry x="120" y="270" width="1920" height="1080" as="geometry" />
        </mxCell>
      </root>
    </mxGraphModel>
  </diagram>
  <diagram id="cMxqc7HFFLshEHXtRzYw" name="04-transaction-pending">
    <mxGraphModel dx="3585" dy="2210" grid="1" gridSize="10" guides="1" tooltips="1" connect="1" arrows="1" fold="1" page="1" pageScale="1" pageWidth="850" pageHeight="1100" math="0" shadow="0">
      <root>
        <mxCell id="0" />
        <mxCell id="1" parent="0" />
        <mxCell id="tpa9_KdnnLAIoZwG0Z__-1" value="" style="rounded=0;whiteSpace=wrap;html=1;fillColor=#E6E6E6;" vertex="1" parent="1">
          <mxGeometry x="40" y="40" width="2080" height="1400" as="geometry" />
        </mxCell>
        <mxCell id="tpa9_KdnnLAIoZwG0Z__-2" value="" style="rounded=0;whiteSpace=wrap;html=1;" vertex="1" parent="1">
          <mxGeometry x="80" y="80" width="2000" height="1320" as="geometry" />
        </mxCell>
        <mxCell id="tpa9_KdnnLAIoZwG0Z__-3" value="&lt;font style=&quot;font-size: 18px;&quot;&gt;NODES&lt;/font&gt;&lt;br&gt;&lt;b&gt;HEALTH 100%&lt;/b&gt;" style="shape=step;perimeter=stepPerimeter;whiteSpace=wrap;html=1;fixedSize=1;fillColor=#CCCCCC;" vertex="1" parent="1">
          <mxGeometry x="120" y="120" width="240" height="120" as="geometry" />
        </mxCell>
        <mxCell id="tpa9_KdnnLAIoZwG0Z__-4" value="&lt;font style=&quot;font-size: 18px;&quot;&gt;BLOCKS&lt;/font&gt;&lt;br&gt;&lt;b&gt;HEIGHT 215K&lt;/b&gt;" style="shape=step;perimeter=stepPerimeter;whiteSpace=wrap;html=1;fixedSize=1;fillColor=#CCCCCC;" vertex="1" parent="1">
          <mxGeometry x="360" y="120" width="240" height="120" as="geometry" />
        </mxCell>
        <mxCell id="tpa9_KdnnLAIoZwG0Z__-5" value="&lt;span style=&quot;font-size: 18px;&quot;&gt;THROUGHPUT&lt;br&gt;&lt;/span&gt;&lt;b&gt;1.2K TRANS / SEC&lt;br&gt;&lt;/b&gt;" style="shape=step;perimeter=stepPerimeter;whiteSpace=wrap;html=1;fixedSize=1;fillColor=#CCCCCC;" vertex="1" parent="1">
          <mxGeometry x="600" y="120" width="240" height="120" as="geometry" />
        </mxCell>
        <mxCell id="tpa9_KdnnLAIoZwG0Z__-6" value="&lt;span style=&quot;font-size: 18px;&quot;&gt;BACKLOG&lt;br&gt;&lt;/span&gt;&lt;b&gt;388 PENDING TRANS&lt;br&gt;&lt;/b&gt;" style="shape=step;perimeter=stepPerimeter;whiteSpace=wrap;html=1;fixedSize=1;fillColor=#CCCCFF;" vertex="1" parent="1">
          <mxGeometry x="840" y="120" width="240" height="120" as="geometry" />
        </mxCell>
        <mxCell id="tpa9_KdnnLAIoZwG0Z__-7" value="&lt;span style=&quot;font-size: 18px;&quot;&gt;VALIDATION&lt;br&gt;&lt;/span&gt;&lt;b&gt;AVG 200MS&lt;br&gt;&lt;/b&gt;" style="shape=step;perimeter=stepPerimeter;whiteSpace=wrap;html=1;fixedSize=1;fillColor=#CCCCCC;" vertex="1" parent="1">
          <mxGeometry x="1080" y="120" width="240" height="120" as="geometry" />
        </mxCell>
        <mxCell id="tpa9_KdnnLAIoZwG0Z__-8" value="&lt;span style=&quot;font-size: 18px;&quot;&gt;CONSENSUS&lt;br&gt;&lt;/span&gt;&lt;b&gt;AVG 3500MS&lt;br&gt;&lt;/b&gt;" style="shape=step;perimeter=stepPerimeter;whiteSpace=wrap;html=1;fixedSize=1;fillColor=#CCCCCC;" vertex="1" parent="1">
          <mxGeometry x="1320" y="120" width="240" height="120" as="geometry" />
        </mxCell>
        <mxCell id="tpa9_KdnnLAIoZwG0Z__-9" value="&lt;span style=&quot;font-size: 18px;&quot;&gt;RESOURCES&lt;br&gt;&lt;/span&gt;&lt;b&gt;DEMAND HIGH&lt;br&gt;&lt;/b&gt;" style="shape=step;perimeter=stepPerimeter;whiteSpace=wrap;html=1;fixedSize=1;fillColor=#CCCCCC;" vertex="1" parent="1">
          <mxGeometry x="1560" y="120" width="240" height="120" as="geometry" />
        </mxCell>
        <mxCell id="tpa9_KdnnLAIoZwG0Z__-10" value="&lt;span style=&quot;font-size: 18px;&quot;&gt;EXCEPTIONS&lt;br&gt;&lt;/span&gt;&lt;b&gt;PULSE HEALTHY&lt;br&gt;&lt;/b&gt;" style="shape=step;perimeter=stepPerimeter;whiteSpace=wrap;html=1;fixedSize=1;fillColor=#CCCCCC;" vertex="1" parent="1">
          <mxGeometry x="1800" y="120" width="240" height="120" as="geometry" />
        </mxCell>
        <mxCell id="tpa9_KdnnLAIoZwG0Z__-11" value="&#xa;&lt;strong style=&quot;border-color: var(--border-color); color: rgb(0, 0, 0); font-family: Helvetica; font-size: 12px; font-style: normal; font-variant-ligatures: normal; font-variant-caps: normal; letter-spacing: normal; orphans: 2; text-indent: 0px; text-transform: none; widows: 2; word-spacing: 0px; -webkit-text-stroke-width: 0px; background-color: initial; text-decoration-thickness: initial; text-decoration-style: initial; text-decoration-color: initial; text-align: center;&quot;&gt;&lt;font style=&quot;border-color: var(--border-color);&quot;&gt;&lt;strong style=&quot;border-color: var(--border-color); background-color: initial;&quot;&gt;&lt;font style=&quot;border-color: var(--border-color); font-size: 128px;&quot;&gt;Pending Transactions&lt;/font&gt;&lt;/strong&gt;&lt;br style=&quot;border-color: var(--border-color);&quot;&gt;&lt;span style=&quot;border-color: var(--border-color); font-size: 72px; font-weight: 400; background-color: initial;&quot;&gt;If there&#39;s a backlog of transactions that haven&#39;t been added to a block, it could indicate that the network is struggling to keep up with the demand.&lt;/span&gt;&lt;/font&gt;&lt;/strong&gt;&#xa;&#xa;" style="rounded=1;whiteSpace=wrap;html=1;fillColor=#CCCCFF;" vertex="1" parent="1">
          <mxGeometry x="120" y="270" width="1920" height="1080" as="geometry" />
        </mxCell>
      </root>
    </mxGraphModel>
  </diagram>
  <diagram id="4e0E_0sg9eSUBUFN0FsR" name="05-block-validation">
    <mxGraphModel dx="3585" dy="2210" grid="1" gridSize="10" guides="1" tooltips="1" connect="1" arrows="1" fold="1" page="1" pageScale="1" pageWidth="850" pageHeight="1100" math="0" shadow="0">
      <root>
        <mxCell id="0" />
        <mxCell id="1" parent="0" />
        <mxCell id="St-48-QkuC22PLDjHtiN-1" value="" style="rounded=0;whiteSpace=wrap;html=1;fillColor=#E6E6E6;" vertex="1" parent="1">
          <mxGeometry x="40" y="40" width="2080" height="1400" as="geometry" />
        </mxCell>
        <mxCell id="St-48-QkuC22PLDjHtiN-2" value="" style="rounded=0;whiteSpace=wrap;html=1;" vertex="1" parent="1">
          <mxGeometry x="80" y="80" width="2000" height="1320" as="geometry" />
        </mxCell>
        <mxCell id="St-48-QkuC22PLDjHtiN-3" value="&lt;font style=&quot;font-size: 18px;&quot;&gt;NODES&lt;/font&gt;&lt;br&gt;&lt;b&gt;HEALTH 100%&lt;/b&gt;" style="shape=step;perimeter=stepPerimeter;whiteSpace=wrap;html=1;fixedSize=1;fillColor=#CCCCCC;" vertex="1" parent="1">
          <mxGeometry x="120" y="120" width="240" height="120" as="geometry" />
        </mxCell>
        <mxCell id="St-48-QkuC22PLDjHtiN-4" value="&lt;font style=&quot;font-size: 18px;&quot;&gt;BLOCKS&lt;/font&gt;&lt;br&gt;&lt;b&gt;HEIGHT 215K&lt;/b&gt;" style="shape=step;perimeter=stepPerimeter;whiteSpace=wrap;html=1;fixedSize=1;fillColor=#CCCCCC;" vertex="1" parent="1">
          <mxGeometry x="360" y="120" width="240" height="120" as="geometry" />
        </mxCell>
        <mxCell id="St-48-QkuC22PLDjHtiN-5" value="&lt;span style=&quot;font-size: 18px;&quot;&gt;THROUGHPUT&lt;br&gt;&lt;/span&gt;&lt;b&gt;1.2K TRANS / SEC&lt;br&gt;&lt;/b&gt;" style="shape=step;perimeter=stepPerimeter;whiteSpace=wrap;html=1;fixedSize=1;fillColor=#CCCCCC;" vertex="1" parent="1">
          <mxGeometry x="600" y="120" width="240" height="120" as="geometry" />
        </mxCell>
        <mxCell id="St-48-QkuC22PLDjHtiN-6" value="&lt;span style=&quot;font-size: 18px;&quot;&gt;BACKLOG&lt;br&gt;&lt;/span&gt;&lt;b&gt;388 PENDING TRANS&lt;br&gt;&lt;/b&gt;" style="shape=step;perimeter=stepPerimeter;whiteSpace=wrap;html=1;fixedSize=1;fillColor=#CCCCCC;" vertex="1" parent="1">
          <mxGeometry x="840" y="120" width="240" height="120" as="geometry" />
        </mxCell>
        <mxCell id="St-48-QkuC22PLDjHtiN-7" value="&lt;span style=&quot;font-size: 18px;&quot;&gt;VALIDATION&lt;br&gt;&lt;/span&gt;&lt;b&gt;AVG 200MS&lt;br&gt;&lt;/b&gt;" style="shape=step;perimeter=stepPerimeter;whiteSpace=wrap;html=1;fixedSize=1;fillColor=#CCCCFF;" vertex="1" parent="1">
          <mxGeometry x="1080" y="120" width="240" height="120" as="geometry" />
        </mxCell>
        <mxCell id="St-48-QkuC22PLDjHtiN-8" value="&lt;span style=&quot;font-size: 18px;&quot;&gt;CONSENSUS&lt;br&gt;&lt;/span&gt;&lt;b&gt;AVG 3500MS&lt;br&gt;&lt;/b&gt;" style="shape=step;perimeter=stepPerimeter;whiteSpace=wrap;html=1;fixedSize=1;fillColor=#CCCCCC;" vertex="1" parent="1">
          <mxGeometry x="1320" y="120" width="240" height="120" as="geometry" />
        </mxCell>
        <mxCell id="St-48-QkuC22PLDjHtiN-9" value="&lt;span style=&quot;font-size: 18px;&quot;&gt;RESOURCES&lt;br&gt;&lt;/span&gt;&lt;b&gt;DEMAND HIGH&lt;br&gt;&lt;/b&gt;" style="shape=step;perimeter=stepPerimeter;whiteSpace=wrap;html=1;fixedSize=1;fillColor=#CCCCCC;" vertex="1" parent="1">
          <mxGeometry x="1560" y="120" width="240" height="120" as="geometry" />
        </mxCell>
        <mxCell id="St-48-QkuC22PLDjHtiN-10" value="&lt;span style=&quot;font-size: 18px;&quot;&gt;EXCEPTIONS&lt;br&gt;&lt;/span&gt;&lt;b&gt;PULSE HEALTHY&lt;br&gt;&lt;/b&gt;" style="shape=step;perimeter=stepPerimeter;whiteSpace=wrap;html=1;fixedSize=1;fillColor=#CCCCCC;" vertex="1" parent="1">
          <mxGeometry x="1800" y="120" width="240" height="120" as="geometry" />
        </mxCell>
        <mxCell id="St-48-QkuC22PLDjHtiN-11" value="&lt;span style=&quot;background-color: initial; border-color: var(--border-color);&quot;&gt;&lt;font style=&quot;&quot;&gt;&lt;span style=&quot;border-color: var(--border-color); background-color: initial;&quot;&gt;&lt;font style=&quot;border-color: var(--border-color);&quot;&gt;&lt;strong style=&quot;font-weight: bold; border-color: var(--border-color); background-color: initial;&quot;&gt;&lt;font style=&quot;border-color: var(--border-color); font-size: 128px;&quot;&gt;Block Validation Time&lt;/font&gt;&lt;/strong&gt;&lt;br style=&quot;border-color: var(--border-color);&quot;&gt;&lt;font style=&quot;font-size: 72px;&quot;&gt;This is the time it takes for a block to be validated by the network. If this time is increasing, it could indicate a problem with the network&#39;s capacity or with individual nodes.&lt;/font&gt;&lt;/font&gt;&lt;/span&gt;&lt;br&gt;&lt;/font&gt;&lt;/span&gt;" style="rounded=1;whiteSpace=wrap;html=1;fillColor=#CCCCFF;" vertex="1" parent="1">
          <mxGeometry x="120" y="270" width="1920" height="1080" as="geometry" />
        </mxCell>
      </root>
    </mxGraphModel>
  </diagram>
  <diagram id="wREJsctZYTdH1_XmG6X_" name="06-consensus-latency">
    <mxGraphModel dx="3585" dy="2210" grid="1" gridSize="10" guides="1" tooltips="1" connect="1" arrows="1" fold="1" page="1" pageScale="1" pageWidth="850" pageHeight="1100" math="0" shadow="0">
      <root>
        <mxCell id="0" />
        <mxCell id="1" parent="0" />
        <mxCell id="NdklArnO7nm69SajIIvh-1" value="" style="rounded=0;whiteSpace=wrap;html=1;fillColor=#E6E6E6;" vertex="1" parent="1">
          <mxGeometry x="40" y="40" width="2080" height="1400" as="geometry" />
        </mxCell>
        <mxCell id="NdklArnO7nm69SajIIvh-2" value="" style="rounded=0;whiteSpace=wrap;html=1;" vertex="1" parent="1">
          <mxGeometry x="80" y="80" width="2000" height="1320" as="geometry" />
        </mxCell>
        <mxCell id="NdklArnO7nm69SajIIvh-3" value="&lt;font style=&quot;font-size: 18px;&quot;&gt;NODES&lt;/font&gt;&lt;br&gt;&lt;b&gt;HEALTH 100%&lt;/b&gt;" style="shape=step;perimeter=stepPerimeter;whiteSpace=wrap;html=1;fixedSize=1;fillColor=#CCCCCC;" vertex="1" parent="1">
          <mxGeometry x="120" y="120" width="240" height="120" as="geometry" />
        </mxCell>
        <mxCell id="NdklArnO7nm69SajIIvh-4" value="&lt;font style=&quot;font-size: 18px;&quot;&gt;BLOCKS&lt;/font&gt;&lt;br&gt;&lt;b&gt;HEIGHT 215K&lt;/b&gt;" style="shape=step;perimeter=stepPerimeter;whiteSpace=wrap;html=1;fixedSize=1;fillColor=#CCCCCC;" vertex="1" parent="1">
          <mxGeometry x="360" y="120" width="240" height="120" as="geometry" />
        </mxCell>
        <mxCell id="NdklArnO7nm69SajIIvh-5" value="&lt;span style=&quot;font-size: 18px;&quot;&gt;THROUGHPUT&lt;br&gt;&lt;/span&gt;&lt;b&gt;1.2K TRANS / SEC&lt;br&gt;&lt;/b&gt;" style="shape=step;perimeter=stepPerimeter;whiteSpace=wrap;html=1;fixedSize=1;fillColor=#CCCCCC;" vertex="1" parent="1">
          <mxGeometry x="600" y="120" width="240" height="120" as="geometry" />
        </mxCell>
        <mxCell id="NdklArnO7nm69SajIIvh-6" value="&lt;span style=&quot;font-size: 18px;&quot;&gt;BACKLOG&lt;br&gt;&lt;/span&gt;&lt;b&gt;388 PENDING TRANS&lt;br&gt;&lt;/b&gt;" style="shape=step;perimeter=stepPerimeter;whiteSpace=wrap;html=1;fixedSize=1;fillColor=#CCCCCC;" vertex="1" parent="1">
          <mxGeometry x="840" y="120" width="240" height="120" as="geometry" />
        </mxCell>
        <mxCell id="NdklArnO7nm69SajIIvh-7" value="&lt;span style=&quot;font-size: 18px;&quot;&gt;VALIDATION&lt;br&gt;&lt;/span&gt;&lt;b&gt;AVG 200MS&lt;br&gt;&lt;/b&gt;" style="shape=step;perimeter=stepPerimeter;whiteSpace=wrap;html=1;fixedSize=1;fillColor=#CCCCCC;" vertex="1" parent="1">
          <mxGeometry x="1080" y="120" width="240" height="120" as="geometry" />
        </mxCell>
        <mxCell id="NdklArnO7nm69SajIIvh-8" value="&lt;span style=&quot;font-size: 18px;&quot;&gt;CONSENSUS&lt;br&gt;&lt;/span&gt;&lt;b&gt;AVG 3500MS&lt;br&gt;&lt;/b&gt;" style="shape=step;perimeter=stepPerimeter;whiteSpace=wrap;html=1;fixedSize=1;fillColor=#CCCCFF;" vertex="1" parent="1">
          <mxGeometry x="1320" y="120" width="240" height="120" as="geometry" />
        </mxCell>
        <mxCell id="NdklArnO7nm69SajIIvh-9" value="&lt;span style=&quot;font-size: 18px;&quot;&gt;RESOURCES&lt;br&gt;&lt;/span&gt;&lt;b&gt;DEMAND HIGH&lt;br&gt;&lt;/b&gt;" style="shape=step;perimeter=stepPerimeter;whiteSpace=wrap;html=1;fixedSize=1;fillColor=#CCCCCC;" vertex="1" parent="1">
          <mxGeometry x="1560" y="120" width="240" height="120" as="geometry" />
        </mxCell>
        <mxCell id="NdklArnO7nm69SajIIvh-10" value="&lt;span style=&quot;font-size: 18px;&quot;&gt;EXCEPTIONS&lt;br&gt;&lt;/span&gt;&lt;b&gt;PULSE HEALTHY&lt;br&gt;&lt;/b&gt;" style="shape=step;perimeter=stepPerimeter;whiteSpace=wrap;html=1;fixedSize=1;fillColor=#CCCCCC;" vertex="1" parent="1">
          <mxGeometry x="1800" y="120" width="240" height="120" as="geometry" />
        </mxCell>
        <mxCell id="NdklArnO7nm69SajIIvh-11" value="&lt;span style=&quot;background-color: initial; border-color: var(--border-color);&quot;&gt;&lt;font style=&quot;&quot;&gt;&lt;span style=&quot;border-color: var(--border-color); background-color: initial;&quot;&gt;&lt;font style=&quot;border-color: var(--border-color);&quot;&gt;&lt;strong style=&quot;font-weight: bold; border-color: var(--border-color); background-color: initial;&quot;&gt;&lt;font style=&quot;border-color: var(--border-color); font-size: 128px;&quot;&gt;Consensus Latency&lt;/font&gt;&lt;/strong&gt;&lt;br style=&quot;border-color: var(--border-color);&quot;&gt;&lt;font style=&quot;font-size: 72px;&quot;&gt;The time it takes for all nodes to reach a consensus. High latency could indicate network issues or problems with the consensus algorithm.&lt;/font&gt;&lt;/font&gt;&lt;/span&gt;&lt;br&gt;&lt;/font&gt;&lt;/span&gt;" style="rounded=1;whiteSpace=wrap;html=1;fillColor=#CCCCFF;" vertex="1" parent="1">
          <mxGeometry x="120" y="270" width="1920" height="1080" as="geometry" />
        </mxCell>
      </root>
    </mxGraphModel>
  </diagram>
  <diagram id="gFIAPw-ZqXotE3nl1a7H" name="07-resources">
    <mxGraphModel dx="3585" dy="2210" grid="1" gridSize="10" guides="1" tooltips="1" connect="1" arrows="1" fold="1" page="1" pageScale="1" pageWidth="850" pageHeight="1100" math="0" shadow="0">
      <root>
        <mxCell id="0" />
        <mxCell id="1" parent="0" />
        <mxCell id="KmSV-UtzgACh0dVm8kMJ-1" value="" style="rounded=0;whiteSpace=wrap;html=1;fillColor=#E6E6E6;" vertex="1" parent="1">
          <mxGeometry x="40" y="40" width="2080" height="1400" as="geometry" />
        </mxCell>
        <mxCell id="KmSV-UtzgACh0dVm8kMJ-2" value="" style="rounded=0;whiteSpace=wrap;html=1;" vertex="1" parent="1">
          <mxGeometry x="80" y="80" width="2000" height="1320" as="geometry" />
        </mxCell>
        <mxCell id="KmSV-UtzgACh0dVm8kMJ-3" value="&lt;font style=&quot;font-size: 18px;&quot;&gt;NODES&lt;/font&gt;&lt;br&gt;&lt;b&gt;HEALTH 100%&lt;/b&gt;" style="shape=step;perimeter=stepPerimeter;whiteSpace=wrap;html=1;fixedSize=1;fillColor=#CCCCCC;" vertex="1" parent="1">
          <mxGeometry x="120" y="120" width="240" height="120" as="geometry" />
        </mxCell>
        <mxCell id="KmSV-UtzgACh0dVm8kMJ-4" value="&lt;font style=&quot;font-size: 18px;&quot;&gt;BLOCKS&lt;/font&gt;&lt;br&gt;&lt;b&gt;HEIGHT 215K&lt;/b&gt;" style="shape=step;perimeter=stepPerimeter;whiteSpace=wrap;html=1;fixedSize=1;fillColor=#CCCCCC;" vertex="1" parent="1">
          <mxGeometry x="360" y="120" width="240" height="120" as="geometry" />
        </mxCell>
        <mxCell id="KmSV-UtzgACh0dVm8kMJ-5" value="&lt;span style=&quot;font-size: 18px;&quot;&gt;THROUGHPUT&lt;br&gt;&lt;/span&gt;&lt;b&gt;1.2K TRANS / SEC&lt;br&gt;&lt;/b&gt;" style="shape=step;perimeter=stepPerimeter;whiteSpace=wrap;html=1;fixedSize=1;fillColor=#CCCCCC;" vertex="1" parent="1">
          <mxGeometry x="600" y="120" width="240" height="120" as="geometry" />
        </mxCell>
        <mxCell id="KmSV-UtzgACh0dVm8kMJ-6" value="&lt;span style=&quot;font-size: 18px;&quot;&gt;BACKLOG&lt;br&gt;&lt;/span&gt;&lt;b&gt;388 PENDING TRANS&lt;br&gt;&lt;/b&gt;" style="shape=step;perimeter=stepPerimeter;whiteSpace=wrap;html=1;fixedSize=1;fillColor=#CCCCCC;" vertex="1" parent="1">
          <mxGeometry x="840" y="120" width="240" height="120" as="geometry" />
        </mxCell>
        <mxCell id="KmSV-UtzgACh0dVm8kMJ-7" value="&lt;span style=&quot;font-size: 18px;&quot;&gt;VALIDATION&lt;br&gt;&lt;/span&gt;&lt;b&gt;AVG 200MS&lt;br&gt;&lt;/b&gt;" style="shape=step;perimeter=stepPerimeter;whiteSpace=wrap;html=1;fixedSize=1;fillColor=#CCCCCC;" vertex="1" parent="1">
          <mxGeometry x="1080" y="120" width="240" height="120" as="geometry" />
        </mxCell>
        <mxCell id="KmSV-UtzgACh0dVm8kMJ-8" value="&lt;span style=&quot;font-size: 18px;&quot;&gt;CONSENSUS&lt;br&gt;&lt;/span&gt;&lt;b&gt;AVG 3500MS&lt;br&gt;&lt;/b&gt;" style="shape=step;perimeter=stepPerimeter;whiteSpace=wrap;html=1;fixedSize=1;fillColor=#CCCCCC;" vertex="1" parent="1">
          <mxGeometry x="1320" y="120" width="240" height="120" as="geometry" />
        </mxCell>
        <mxCell id="KmSV-UtzgACh0dVm8kMJ-9" value="&lt;span style=&quot;font-size: 18px;&quot;&gt;RESOURCES&lt;br&gt;&lt;/span&gt;&lt;b&gt;DEMAND HIGH&lt;br&gt;&lt;/b&gt;" style="shape=step;perimeter=stepPerimeter;whiteSpace=wrap;html=1;fixedSize=1;fillColor=#CCCCFF;" vertex="1" parent="1">
          <mxGeometry x="1560" y="120" width="240" height="120" as="geometry" />
        </mxCell>
        <mxCell id="KmSV-UtzgACh0dVm8kMJ-10" value="&lt;span style=&quot;font-size: 18px;&quot;&gt;EXCEPTIONS&lt;br&gt;&lt;/span&gt;&lt;b&gt;PULSE HEALTHY&lt;br&gt;&lt;/b&gt;" style="shape=step;perimeter=stepPerimeter;whiteSpace=wrap;html=1;fixedSize=1;fillColor=#CCCCCC;" vertex="1" parent="1">
          <mxGeometry x="1800" y="120" width="240" height="120" as="geometry" />
        </mxCell>
        <mxCell id="KmSV-UtzgACh0dVm8kMJ-11" value="&lt;span style=&quot;background-color: initial; border-color: var(--border-color);&quot;&gt;&lt;font style=&quot;&quot;&gt;&lt;span style=&quot;border-color: var(--border-color); background-color: initial;&quot;&gt;&lt;font style=&quot;border-color: var(--border-color);&quot;&gt;&lt;strong style=&quot;font-weight: bold; border-color: var(--border-color); background-color: initial;&quot;&gt;&lt;font style=&quot;border-color: var(--border-color); font-size: 128px;&quot;&gt;Resource Usage&lt;/font&gt;&lt;/strong&gt;&lt;br style=&quot;border-color: var(--border-color);&quot;&gt;&lt;font style=&quot;font-size: 72px;&quot;&gt;As with any system, monitoring the usage of resources such as CPU, memory, disk space, and network bandwidth can help identify performance issues or capacity limitations.&lt;/font&gt;&lt;/font&gt;&lt;/span&gt;&lt;br&gt;&lt;/font&gt;&lt;/span&gt;" style="rounded=1;whiteSpace=wrap;html=1;fillColor=#CCCCFF;" vertex="1" parent="1">
          <mxGeometry x="120" y="270" width="1920" height="1080" as="geometry" />
        </mxCell>
      </root>
    </mxGraphModel>
  </diagram>
  <diagram id="SkrjsFAwA0y-iImWOWYv" name="08-exceptions">
    <mxGraphModel dx="2390" dy="1473" grid="1" gridSize="10" guides="1" tooltips="1" connect="1" arrows="1" fold="1" page="1" pageScale="1" pageWidth="850" pageHeight="1100" math="0" shadow="0">
      <root>
        <mxCell id="0" />
        <mxCell id="1" parent="0" />
        <mxCell id="JWwVRP_fELPM06XbMX7d-1" value="" style="rounded=0;whiteSpace=wrap;html=1;fillColor=#E6E6E6;" vertex="1" parent="1">
          <mxGeometry x="40" y="40" width="2080" height="1400" as="geometry" />
        </mxCell>
        <mxCell id="JWwVRP_fELPM06XbMX7d-2" value="" style="rounded=0;whiteSpace=wrap;html=1;" vertex="1" parent="1">
          <mxGeometry x="80" y="80" width="2000" height="1320" as="geometry" />
        </mxCell>
        <mxCell id="JWwVRP_fELPM06XbMX7d-3" value="&lt;font style=&quot;font-size: 18px;&quot;&gt;NODES&lt;/font&gt;&lt;br&gt;&lt;b&gt;HEALTH 100%&lt;/b&gt;" style="shape=step;perimeter=stepPerimeter;whiteSpace=wrap;html=1;fixedSize=1;fillColor=#CCCCCC;" vertex="1" parent="1">
          <mxGeometry x="120" y="120" width="240" height="120" as="geometry" />
        </mxCell>
        <mxCell id="JWwVRP_fELPM06XbMX7d-4" value="&lt;font style=&quot;font-size: 18px;&quot;&gt;BLOCKS&lt;/font&gt;&lt;br&gt;&lt;b&gt;HEIGHT 215K&lt;/b&gt;" style="shape=step;perimeter=stepPerimeter;whiteSpace=wrap;html=1;fixedSize=1;fillColor=#CCCCCC;" vertex="1" parent="1">
          <mxGeometry x="360" y="120" width="240" height="120" as="geometry" />
        </mxCell>
        <mxCell id="JWwVRP_fELPM06XbMX7d-5" value="&lt;span style=&quot;font-size: 18px;&quot;&gt;THROUGHPUT&lt;br&gt;&lt;/span&gt;&lt;b&gt;1.2K TRANS / SEC&lt;br&gt;&lt;/b&gt;" style="shape=step;perimeter=stepPerimeter;whiteSpace=wrap;html=1;fixedSize=1;fillColor=#CCCCCC;" vertex="1" parent="1">
          <mxGeometry x="600" y="120" width="240" height="120" as="geometry" />
        </mxCell>
        <mxCell id="JWwVRP_fELPM06XbMX7d-6" value="&lt;span style=&quot;font-size: 18px;&quot;&gt;BACKLOG&lt;br&gt;&lt;/span&gt;&lt;b&gt;388 PENDING TRANS&lt;br&gt;&lt;/b&gt;" style="shape=step;perimeter=stepPerimeter;whiteSpace=wrap;html=1;fixedSize=1;fillColor=#CCCCCC;" vertex="1" parent="1">
          <mxGeometry x="840" y="120" width="240" height="120" as="geometry" />
        </mxCell>
        <mxCell id="JWwVRP_fELPM06XbMX7d-7" value="&lt;span style=&quot;font-size: 18px;&quot;&gt;VALIDATION&lt;br&gt;&lt;/span&gt;&lt;b&gt;AVG 200MS&lt;br&gt;&lt;/b&gt;" style="shape=step;perimeter=stepPerimeter;whiteSpace=wrap;html=1;fixedSize=1;fillColor=#CCCCCC;" vertex="1" parent="1">
          <mxGeometry x="1080" y="120" width="240" height="120" as="geometry" />
        </mxCell>
        <mxCell id="JWwVRP_fELPM06XbMX7d-8" value="&lt;span style=&quot;font-size: 18px;&quot;&gt;CONSENSUS&lt;br&gt;&lt;/span&gt;&lt;b&gt;AVG 3500MS&lt;br&gt;&lt;/b&gt;" style="shape=step;perimeter=stepPerimeter;whiteSpace=wrap;html=1;fixedSize=1;fillColor=#CCCCCC;" vertex="1" parent="1">
          <mxGeometry x="1320" y="120" width="240" height="120" as="geometry" />
        </mxCell>
        <mxCell id="JWwVRP_fELPM06XbMX7d-9" value="&lt;span style=&quot;font-size: 18px;&quot;&gt;RESOURCES&lt;br&gt;&lt;/span&gt;&lt;b&gt;DEMAND HIGH&lt;br&gt;&lt;/b&gt;" style="shape=step;perimeter=stepPerimeter;whiteSpace=wrap;html=1;fixedSize=1;fillColor=#CCCCCC;" vertex="1" parent="1">
          <mxGeometry x="1560" y="120" width="240" height="120" as="geometry" />
        </mxCell>
        <mxCell id="JWwVRP_fELPM06XbMX7d-10" value="&lt;span style=&quot;font-size: 18px;&quot;&gt;EXCEPTIONS&lt;br&gt;&lt;/span&gt;&lt;b&gt;PULSE HEALTHY&lt;br&gt;&lt;/b&gt;" style="shape=step;perimeter=stepPerimeter;whiteSpace=wrap;html=1;fixedSize=1;fillColor=#CCCCFF;" vertex="1" parent="1">
          <mxGeometry x="1800" y="120" width="240" height="120" as="geometry" />
        </mxCell>
        <mxCell id="JWwVRP_fELPM06XbMX7d-11" value="&lt;strong style=&quot;background-color: initial; border-color: var(--border-color);&quot;&gt;&lt;font style=&quot;&quot;&gt;&lt;strong style=&quot;background-color: initial; border-color: var(--border-color);&quot;&gt;&lt;font style=&quot;font-size: 128px;&quot;&gt;Errors&lt;/font&gt;&lt;/strong&gt;&lt;br&gt;&lt;span style=&quot;font-size: 72px; font-weight: 400; background-color: initial;&quot;&gt;Monitoring for any errors or exceptions thrown by your nodes can help identify bugs or issues with the blockchain software.&lt;/span&gt;&lt;br&gt;&lt;/font&gt;&lt;/strong&gt;" style="rounded=1;whiteSpace=wrap;html=1;fillColor=#CCCCFF;" vertex="1" parent="1">
          <mxGeometry x="120" y="270" width="1920" height="1080" as="geometry" />
        </mxCell>
      </root>
    </mxGraphModel>
  </diagram>
</mxfile>
